<?xml version="1.0" encoding="UTF-8"?>
<svg version="1.1" xmlns="http://www.w3.org/2000/svg" width="512" height="512">
<path d="M0 0 C8.18659544 7.54943118 12.21743151 16.61332936 12.70141602 27.59350586 C12.87751848 36.08978614 11.66737042 42.58578489 8.24609375 50.4296875 C7.1478348 53.53926773 7.07775511 54.26553724 8.25 57.25 C10.10857382 59.50627502 10.10857382 59.50627502 12.4765625 61.734375 C13.34410156 62.58773437 14.21164062 63.44109375 15.10546875 64.3203125 C16.47638672 65.64675781 16.47638672 65.64675781 17.875 67 C23.31293592 72.30415168 28.6488681 77.585394 33.58740234 83.36035156 C36.48112454 86.64925168 39.62376188 89.68423613 42.75 92.75 C47.29062163 97.24673747 51.79528217 101.72214394 55.89453125 106.6328125 C57.22767829 108.26341304 57.22767829 108.26341304 58.69921875 109.7421875 C62.49339784 113.76466963 64.04319422 117.79212564 64.25 123.25 C63.30026763 129.27149903 61.05067607 133.38604121 56.25 137.25 C51.30260103 140.3003571 45.86515528 139.82669162 40.25 139.25 C32.66331114 135.9118569 26.3801982 127.82587133 21.0625 121.5625 C16.90545021 116.6911123 12.29532955 112.270491 7.74853516 107.76806641 C3.81984077 103.86300919 0.01720698 99.91022247 -3.55078125 95.66796875 C-4.83555174 94.10892049 -4.83555174 94.10892049 -6.75 92.25 C-7.10161949 93.04608925 -7.10161949 93.04608925 -7.46034241 93.85826111 C-7.78933029 94.60104813 -8.11831818 95.34383514 -8.45727539 96.10913086 C-8.82289581 96.93605438 -9.18851624 97.76297791 -9.56521606 98.61495972 C-10.32830595 100.31212367 -11.10763152 102.00212731 -11.90670776 103.68264771 C-19.76990642 120.28319138 -21.02719065 134.99156787 -20.8125 153.1875 C-20.81558437 155.73243008 -20.82272445 158.27735858 -20.83398438 160.82226562 C-20.85254835 166.9656125 -20.8218065 173.10707778 -20.75 179.25 C-22.40614657 179.63218767 -24.07457024 179.96395102 -25.75 180.25 C-26.08 179.92 -26.41 179.59 -26.75 179.25 C-28.25259477 179.15089905 -29.75976711 179.11920299 -31.265625 179.1171875 C-32.18730469 179.11589844 -33.10898438 179.11460937 -34.05859375 179.11328125 C-35.51458984 179.11908203 -35.51458984 179.11908203 -37 179.125 C-37.95519531 179.12113281 -38.91039062 179.11726562 -39.89453125 179.11328125 C-41.28478516 179.11521484 -41.28478516 179.11521484 -42.703125 179.1171875 C-43.97397949 179.11887939 -43.97397949 179.11887939 -45.27050781 179.12060547 C-47.74586041 179.18205581 -47.74586041 179.18205581 -50.09741211 179.76586914 C-53.53712451 180.39366019 -56.74476213 180.25417188 -60.23828125 180.12890625 C-60.94147995 180.10529526 -61.64467865 180.08168427 -62.3691864 180.05735779 C-64.60052072 179.9811907 -66.831466 179.89696693 -69.0625 179.8125 C-70.58136159 179.75923218 -72.1002418 179.70649215 -73.61914062 179.65429688 C-77.32966209 179.5256401 -81.03987824 179.38975943 -84.75 179.25 C-85.08 180.24 -85.41 181.23 -85.75 182.25 C-87.07 181.92 -88.39 181.59 -89.75 181.25 C-89.74920441 180.68782776 -89.74840881 180.12565552 -89.74758911 179.54644775 C-89.74513161 173.63995663 -89.78474122 167.73476172 -89.84765625 161.82861328 C-89.86570842 159.63108353 -89.87340455 157.43344128 -89.87011719 155.23583984 C-89.5200544 139.18047407 -89.5200544 139.18047407 -95.37060547 124.60839844 C-99.83200875 116.98058328 -97.81142673 107.36543929 -95.89111328 99.25561523 C-93.66166489 90.9704037 -90.2203892 83.02571353 -87.0625 75.0625 C-86.00978258 72.3896993 -84.95965594 69.71592691 -83.91313171 67.04069519 C-83.26614695 65.38864284 -82.61525452 63.73811428 -81.96003723 62.08930969 C-80.33650083 58.28606473 -80.33650083 58.28606473 -79.75 54.25 C-83.80390716 55.08071868 -86.58932637 56.57417645 -89.75 59.25 C-92.68635605 64.42301014 -94.50173255 69.92895557 -96.44189453 75.5390625 C-98.9669726 82.70240453 -101.69264877 89.79248494 -104.37319946 96.89877319 C-105.35292277 99.50379799 -106.32565653 102.11131056 -107.2956543 104.7199707 C-109.09899547 109.56894369 -110.91914983 114.41135208 -112.75 119.25 C-113.02992798 119.99379913 -113.30985596 120.73759827 -113.5982666 121.50393677 C-114.38634183 123.5873195 -115.18692875 125.66539573 -115.9921875 127.7421875 C-116.44190918 128.91249512 -116.89163086 130.08280273 -117.35498047 131.28857422 C-119.9152432 136.72364368 -123.40908434 139.07954217 -128.625 141.6875 C-134.45668938 142.73720409 -139.58608241 142.36496185 -144.625 139.0625 C-148.40385979 135.96751739 -150.3751868 133.01369242 -151.04629517 128.06526184 C-151.44059888 119.13186856 -148.45982808 111.72875299 -145.2734375 103.57421875 C-144.70337776 102.07705511 -144.1348544 100.57930567 -143.56777954 99.08100891 C-142.07713171 95.15595315 -140.56438572 91.23977956 -139.04711914 87.32495117 C-137.82489136 84.16049115 -136.61836828 80.99016272 -135.41272545 77.81935406 C-133.95477295 73.9856732 -132.49024665 70.15451867 -131.0234375 66.32421875 C-130.75152966 65.61415869 -130.47962181 64.90409863 -130.19947433 64.17252159 C-128.65876243 60.1592866 -127.09224094 56.15757403 -125.50029755 52.16439438 C-124.74394252 50.23454425 -124.02425621 48.29350358 -123.30645752 46.34902954 C-120.47974261 38.92512436 -117.87240362 34.06674227 -110.75 30.25 C-110.01397552 29.83190063 -109.27795105 29.41380127 -108.5196228 28.98303223 C-106.11611527 27.66414775 -103.68366327 26.42693446 -101.23046875 25.203125 C-100.3324202 24.74701843 -99.43437164 24.29091187 -98.5091095 23.82098389 C-95.65550748 22.37340501 -92.7967891 20.93630758 -89.9375 19.5 C-87.12988227 18.08149602 -84.32339521 16.66077943 -81.51724243 15.23937988 C-79.6627111 14.30022346 -77.80754895 13.36231165 -75.95175171 12.42565918 C-68.93056651 8.87451511 -61.96223797 5.22983786 -55.03593445 1.49688721 C-36.86829736 -8.198393 -17.45619836 -13.77313234 0 0 Z " fill="#82B4FE" transform="translate(268.75,203.75)"/>
<path d="M0 0 C8.18659544 7.54943118 12.21743151 16.61332936 12.70141602 27.59350586 C12.87751848 36.08978614 11.66737042 42.58578489 8.24609375 50.4296875 C7.1478348 53.53926773 7.07775511 54.26553724 8.25 57.25 C10.10857382 59.50627502 10.10857382 59.50627502 12.4765625 61.734375 C13.34410156 62.58773437 14.21164062 63.44109375 15.10546875 64.3203125 C16.47638672 65.64675781 16.47638672 65.64675781 17.875 67 C23.31293592 72.30415168 28.6488681 77.585394 33.58740234 83.36035156 C36.48112454 86.64925168 39.62376188 89.68423613 42.75 92.75 C47.29062163 97.24673747 51.79528217 101.72214394 55.89453125 106.6328125 C57.22767829 108.26341304 57.22767829 108.26341304 58.69921875 109.7421875 C62.49339784 113.76466963 64.04319422 117.79212564 64.25 123.25 C63.30026763 129.27149903 61.05067607 133.38604121 56.25 137.25 C51.30260103 140.3003571 45.86515528 139.82669162 40.25 139.25 C32.66331114 135.9118569 26.3801982 127.82587133 21.0625 121.5625 C16.90545021 116.6911123 12.29532955 112.270491 7.74853516 107.76806641 C3.81984077 103.86300919 0.01720698 99.91022247 -3.55078125 95.66796875 C-4.83555174 94.10892049 -4.83555174 94.10892049 -6.75 92.25 C-7.10161949 93.04608925 -7.10161949 93.04608925 -7.46034241 93.85826111 C-7.78933029 94.60104813 -8.11831818 95.34383514 -8.45727539 96.10913086 C-8.82289581 96.93605438 -9.18851624 97.76297791 -9.56521606 98.61495972 C-10.32830595 100.31212367 -11.10763152 102.00212731 -11.90670776 103.68264771 C-19.76990642 120.28319138 -21.02719065 134.99156787 -20.8125 153.1875 C-20.81558437 155.73243008 -20.82272445 158.27735858 -20.83398438 160.82226562 C-20.85254835 166.9656125 -20.8218065 173.10707778 -20.75 179.25 C-22.40614657 179.63218767 -24.07457024 179.96395102 -25.75 180.25 C-26.08 179.92 -26.41 179.59 -26.75 179.25 C-28.25259477 179.15089905 -29.75976711 179.11920299 -31.265625 179.1171875 C-32.18730469 179.11589844 -33.10898438 179.11460937 -34.05859375 179.11328125 C-35.51458984 179.11908203 -35.51458984 179.11908203 -37 179.125 C-37.95519531 179.12113281 -38.91039062 179.11726562 -39.89453125 179.11328125 C-41.28478516 179.11521484 -41.28478516 179.11521484 -42.703125 179.1171875 C-43.97397949 179.11887939 -43.97397949 179.11887939 -45.27050781 179.12060547 C-47.81275087 179.19040615 -47.81275087 179.19040615 -50.50292969 179.82080078 C-51.24446289 179.96243652 -51.98599609 180.10407227 -52.75 180.25 C-53.75 179.25 -53.75 179.25 -53.86352539 176.01538086 C-53.86336631 174.58185874 -53.85767407 173.14833088 -53.84765625 171.71484375 C-53.8462413 170.96159317 -53.84482635 170.20834259 -53.84336853 169.43226624 C-53.83775376 167.0173044 -53.82519883 164.60243399 -53.8125 162.1875 C-53.8074869 160.55403779 -53.80292366 158.92057414 -53.79882812 157.28710938 C-53.78777954 153.27470415 -53.77050506 149.26236759 -53.75 145.25 C-52.51262085 144.74774902 -52.51262085 144.74774902 -51.25024414 144.23535156 C-50.16864014 143.7915918 -49.08703613 143.34783203 -47.97265625 142.890625 C-46.90023682 142.45266602 -45.82781738 142.01470703 -44.72290039 141.56347656 C-41.38742798 140.08980969 -38.69985357 138.36784359 -35.75 136.25 C-34.76 135.92 -33.77 135.59 -32.75 135.25 C-31.67176746 133.47781673 -31.67176746 133.47781673 -30.75 131.25 C-30.30132568 130.43023682 -29.85265137 129.61047363 -29.39038086 128.76586914 C-22.76690706 116.2697891 -18.19564973 102.93236171 -13.3125 89.6875 C-12.4011314 87.23084485 -11.4890266 84.77446269 -10.57617188 82.31835938 C-9.23527007 78.7105046 -7.89511881 75.1023929 -6.55899048 71.49276733 C-3.47969762 63.17926359 -0.34636207 54.88788737 2.85533142 46.62071228 C3.15838699 45.83330154 3.46144257 45.04589081 3.77368164 44.23461914 C4.03637344 43.55677872 4.29906525 42.87893829 4.56971741 42.18055725 C7.71097632 33.2660558 6.93606993 23.87875462 3.25 15.25 C-1.0821918 6.66892779 -7.65292906 1.33328206 -16.75 -1.75 C-28.98338218 -3.50554578 -40.18834493 1.28742862 -50.8671875 6.7421875 C-51.54266632 7.08361786 -52.21814514 7.42504822 -52.91409302 7.77682495 C-55.1945802 8.93093475 -57.47224055 10.09051708 -59.75 11.25 C-61.46992821 12.12166373 -63.189985 12.99307379 -64.91015625 13.86425781 C-69.53704238 16.20978848 -74.15914634 18.5645726 -78.77929688 20.92333984 C-80.68640634 21.89620128 -82.59429311 22.86754036 -84.50292969 23.83740234 C-87.31362528 25.26574935 -90.12188824 26.69878196 -92.9296875 28.1328125 C-93.76845428 28.5579715 -94.60722107 28.98313049 -95.47140503 29.4211731 C-97.91220959 30.6715682 -100.33191802 31.95628345 -102.75 33.25 C-103.63898987 33.70276306 -104.52797974 34.15552612 -105.44390869 34.62200928 C-111.56130308 37.93935634 -114.43317123 40.70284711 -116.75 47.25 C-117.17770187 48.32004776 -117.17770187 48.32004776 -117.61404419 49.41171265 C-118.53344786 51.73406763 -119.39805174 54.07148901 -120.25390625 56.41796875 C-120.57398651 57.2833728 -120.89406677 58.14877686 -121.22384644 59.04040527 C-122.25767549 61.83788019 -123.28527166 64.63759533 -124.3125 67.4375 C-125.74021118 71.31323039 -127.17060685 75.18796649 -128.6015625 79.0625 C-128.95498215 80.02065109 -129.30840179 80.97880219 -129.67253113 81.96598816 C-131.80843098 87.74466597 -133.98398392 93.50582621 -136.2109375 99.25 C-136.4697319 99.91993484 -136.72852631 100.58986969 -136.99516296 101.28010559 C-138.17390269 104.32990831 -139.3608236 107.37599364 -140.56274414 110.41674805 C-144.60512079 120.32333731 -144.60512079 120.32333731 -143.5625 130.625 C-141.30891697 133.89671696 -141.30891697 133.89671696 -137.75 135.25 C-132.23969231 135.8903431 -132.23969231 135.8903431 -127.34863281 133.75463867 C-123.91158094 130.44190707 -122.70505425 127.13767968 -121.07421875 122.71484375 C-120.74016525 121.84568832 -120.40611176 120.9765329 -120.06193542 120.08103943 C-118.93985941 117.14385789 -117.84299949 114.19811871 -116.75 111.25 C-116.35443909 110.19049133 -115.95887817 109.13098267 -115.55133057 108.03936768 C-112.08747117 98.75960338 -108.63176978 89.47630451 -105.23266602 80.17260742 C-103.94498569 76.65326433 -102.64009188 73.14071653 -101.33203125 69.62890625 C-100.94545853 68.55814346 -100.5588858 67.48738068 -100.16059875 66.38417053 C-96.81520351 57.47867682 -92.6693589 53.32985151 -84.2734375 49.17578125 C-83.55419601 48.80994431 -82.83495453 48.44410736 -82.09391785 48.06718445 C-79.77531912 46.89007467 -77.45028974 45.72632701 -75.125 44.5625 C-73.53323107 43.75692888 -71.94200455 42.95028512 -70.35131836 42.14257812 C-67.23144399 40.55877033 -64.10975002 38.9786446 -60.98681641 37.40087891 C-55.7322137 34.74030391 -50.51546299 32.01005001 -45.3125 29.25 C-42.79275183 27.91457207 -40.27215341 26.58088896 -37.75 25.25 C-37.01652344 24.8375 -36.28304687 24.425 -35.52734375 24 C-33.75 23.25 -33.75 23.25 -29.75 23.25 C-29.74365234 25.53173828 -29.74365234 25.53173828 -30.75 28.25 C-33.47691898 29.65834942 -35.98417051 30.71130164 -38.8515625 31.7421875 C-62.06812934 40.89572886 -62.06812934 40.89572886 -76.56005859 60.18823242 C-79.39311826 67.47176375 -81.55435057 74.97405024 -83.47949219 82.54199219 C-84.89367217 88.01092894 -86.80768181 93.27334046 -88.83924866 98.54020691 C-92.50878046 108.36311343 -91.7000717 117.45852657 -87.8203125 127.04296875 C-86.71455291 129.45054678 -86.71455291 129.45054678 -84.75 132.25 C-84.50949097 134.47099304 -84.50949097 134.47099304 -84.52294922 137.08862305 C-84.52310028 138.0694133 -84.52325134 139.05020355 -84.52340698 140.06071472 C-84.53372955 141.11704605 -84.54405212 142.17337738 -84.5546875 143.26171875 C-84.5575174 144.34508011 -84.56034729 145.42844147 -84.56326294 146.54463196 C-84.57446909 150.00903308 -84.59957466 153.47317685 -84.625 156.9375 C-84.63502923 159.28450148 -84.64415518 161.631507 -84.65234375 163.97851562 C-84.67440984 169.73576507 -84.70789173 175.49286415 -84.75 181.25 C-86.6875 181.8125 -86.6875 181.8125 -88.75 182.25 C-89.75 181.25 -89.75 181.25 -89.86784363 179.42619324 C-89.86401421 178.23139091 -89.86401421 178.23139091 -89.86010742 177.01245117 C-89.86068649 176.11028366 -89.86126556 175.20811615 -89.86186218 174.27861023 C-89.85869743 172.8007177 -89.85869743 172.8007177 -89.85546875 171.29296875 C-89.8689414 169.20897413 -89.88396753 167.12498908 -89.90039062 165.04101562 C-89.92309014 161.75397957 -89.93761665 158.46801086 -89.92504883 155.1809082 C-89.53711382 139.15566341 -89.53711382 139.15566341 -95.3684082 124.6105957 C-99.83267615 116.98292177 -97.81166774 107.36645711 -95.89111328 99.25561523 C-93.66166489 90.9704037 -90.2203892 83.02571353 -87.0625 75.0625 C-86.00978258 72.3896993 -84.95965594 69.71592691 -83.91313171 67.04069519 C-83.26614695 65.38864284 -82.61525452 63.73811428 -81.96003723 62.08930969 C-80.33650083 58.28606473 -80.33650083 58.28606473 -79.75 54.25 C-83.80390716 55.08071868 -86.58932637 56.57417645 -89.75 59.25 C-92.68635605 64.42301014 -94.50173255 69.92895557 -96.44189453 75.5390625 C-98.9669726 82.70240453 -101.69264877 89.79248494 -104.37319946 96.89877319 C-105.35292277 99.50379799 -106.32565653 102.11131056 -107.2956543 104.7199707 C-109.09899547 109.56894369 -110.91914983 114.41135208 -112.75 119.25 C-113.02992798 119.99379913 -113.30985596 120.73759827 -113.5982666 121.50393677 C-114.38634183 123.5873195 -115.18692875 125.66539573 -115.9921875 127.7421875 C-116.44190918 128.91249512 -116.89163086 130.08280273 -117.35498047 131.28857422 C-119.9152432 136.72364368 -123.40908434 139.07954217 -128.625 141.6875 C-134.45668938 142.73720409 -139.58608241 142.36496185 -144.625 139.0625 C-148.40385979 135.96751739 -150.3751868 133.01369242 -151.04629517 128.06526184 C-151.44059888 119.13186856 -148.45982808 111.72875299 -145.2734375 103.57421875 C-144.70337776 102.07705511 -144.1348544 100.57930567 -143.56777954 99.08100891 C-142.07713171 95.15595315 -140.56438572 91.23977956 -139.04711914 87.32495117 C-137.82489136 84.16049115 -136.61836828 80.99016272 -135.41272545 77.81935406 C-133.95477295 73.9856732 -132.49024665 70.15451867 -131.0234375 66.32421875 C-130.75152966 65.61415869 -130.47962181 64.90409863 -130.19947433 64.17252159 C-128.65876243 60.1592866 -127.09224094 56.15757403 -125.50029755 52.16439438 C-124.74394252 50.23454425 -124.02425621 48.29350358 -123.30645752 46.34902954 C-120.47974261 38.92512436 -117.87240362 34.06674227 -110.75 30.25 C-110.01397552 29.83190063 -109.27795105 29.41380127 -108.5196228 28.98303223 C-106.11611527 27.66414775 -103.68366327 26.42693446 -101.23046875 25.203125 C-100.3324202 24.74701843 -99.43437164 24.29091187 -98.5091095 23.82098389 C-95.65550748 22.37340501 -92.7967891 20.93630758 -89.9375 19.5 C-87.12988227 18.08149602 -84.32339521 16.66077943 -81.51724243 15.23937988 C-79.6627111 14.30022346 -77.80754895 13.36231165 -75.95175171 12.42565918 C-68.93056651 8.87451511 -61.96223797 5.22983786 -55.03593445 1.49688721 C-36.86829736 -8.198393 -17.45619836 -13.77313234 0 0 Z " fill="#6A3536" transform="translate(268.75,203.75)"/>
<path d="M0 0 C9.29564695 6.46732027 15.97171136 14.92253136 18.515625 25.97265625 C20.47206903 37.09993167 19.5193763 45.52609397 14.390625 55.58984375 C12.74510425 58.74560896 12.74510425 58.74560896 11.765625 61.71484375 C13.22771798 65.15848269 13.22771798 65.15848269 15.765625 67.71484375 C16.33041052 71.80953876 16.44731321 73.76534945 14.015625 77.15234375 C11.765625 78.71484375 11.765625 78.71484375 7.765625 78.71484375 C7.518125 79.33359375 7.270625 79.95234375 7.015625 80.58984375 C5.49173485 83.18045701 4.63108733 83.83928582 1.765625 84.71484375 C-1.171875 84.77734375 -1.171875 84.77734375 -4.234375 83.71484375 C-5.27124023 82.08642578 -5.27124023 82.08642578 -6.29296875 80.16015625 C-7.89804472 77.8115061 -8.62147798 76.85716364 -11.42651367 76.20581055 C-14.09646286 76.16961403 -16.69787037 76.31343105 -19.359375 76.52734375 C-31.648119 77.01712777 -40.54618021 74.58294715 -50.234375 66.71484375 C-58.88489427 58.69488625 -63.13820257 47.62426529 -63.609375 36.02734375 C-63.37095702 24.90584599 -59.64770704 15.02011515 -52.234375 6.71484375 C-38.06168993 -6.75827552 -17.17429236 -9.87822061 0 0 Z " fill="#FEFDFD" transform="translate(314.234375,127.28515625)"/>
<path d="M0 0 C2.81627268 1.95527365 4.59470343 4.03323328 6.59375 6.80078125 C5.5625 6.47078125 4.53125 6.14078125 3.46875 5.80078125 C-8.13788505 2.99553685 -17.68301468 4.88890372 -28.21875 10.05078125 C-29.37310547 10.5907373 -30.52746094 11.13069336 -31.71679688 11.68701172 C-35.29219259 13.36705802 -38.84888308 15.08295592 -42.40625 16.80078125 C-44.61733012 17.84230876 -46.82953843 18.8814452 -49.04296875 19.91796875 C-85.67417445 37.16289896 -102.18071107 50.1147405 -116.2265625 88.71484375 C-119.10987155 96.7365211 -121.97163164 104.76624569 -124.73095703 112.83154297 C-125.33770278 114.60088904 -125.9589538 116.36524516 -126.58203125 118.12890625 C-127.86216403 122.27872058 -128.04198262 126.07522127 -126.53125 130.17578125 C-125.48874579 131.95988028 -125.48874579 131.95988028 -123.40625 132.80078125 C-123.40625 133.46078125 -123.40625 134.12078125 -123.40625 134.80078125 C-127.56151857 135.13320274 -129.96482236 135.02565948 -133.71875 133.11328125 C-136.62595726 130.61173082 -137.64394819 129.52759012 -138.40625 125.80078125 C-137.96240576 119.23651087 -136.14668028 113.72274238 -133.79296875 107.609375 C-133.42707642 106.6380513 -133.06118408 105.6667276 -132.6842041 104.66596985 C-131.49639934 101.51990549 -130.29578379 98.37893378 -129.09375 95.23828125 C-128.27141172 93.07537758 -127.44955543 90.91229059 -126.62817383 88.74902344 C-124.99124917 84.44201577 -123.34876125 80.13718182 -121.703125 75.83349609 C-119.9686688 71.29023625 -118.25882024 66.73866726 -116.56974792 62.17835999 C-115.4984075 59.28844363 -114.41557802 56.40292995 -113.32998657 53.51834106 C-112.84335986 52.21785261 -112.36163725 50.91551741 -111.88510132 49.61129761 C-111.23314951 47.83066276 -110.56047189 46.05765684 -109.88671875 44.28515625 C-109.34374146 42.82674316 -109.34374146 42.82674316 -108.78979492 41.33886719 C-106.07594215 36.36035768 -101.43384909 34.12415097 -96.5234375 31.62109375 C-95.36900146 31.02868896 -94.21456543 30.43628418 -93.02514648 29.82592773 C-91.7772168 29.19247501 -90.52925042 28.5590946 -89.28125 27.92578125 C-87.98935844 27.26500275 -86.69777752 26.60361661 -85.40649414 25.94165039 C-82.73804232 24.57408042 -80.06835497 23.20896499 -77.39794922 21.84521484 C-73.56090291 19.88305844 -69.73373326 17.90231745 -65.91015625 15.9140625 C-65.31102417 15.60257263 -64.71189209 15.29108276 -64.09460449 14.97015381 C-61.25984924 13.49586038 -58.42558269 12.02062833 -55.59130859 10.54541016 C-17.62710616 -9.16893829 -17.62710616 -9.16893829 0 0 Z " fill="#FCFCFC" transform="translate(261.40625,205.19921875)"/>
<path d="M0 0 C5.25739529 4.39485388 10.16979934 9.01703956 15 13.875 C15.67289062 14.54402344 16.34578125 15.21304687 17.0390625 15.90234375 C20.32047497 19.19009099 23.49663274 22.52143249 26.53125 26.0390625 C30.0005716 30.06005344 33.71022075 33.78306377 37.5 37.5 C54.54117068 54.39491247 54.54117068 54.39491247 55.4375 61.4375 C54.91284546 65.70968693 53.79623825 67.75031771 51 71 C47.35781349 73.10863429 44.16191328 73.50962203 40 73 C35.61845974 70.39508429 32.12953249 67.37398076 28.5625 63.75 C28.08079346 63.26184814 27.59908691 62.77369629 27.1027832 62.27075195 C24.53778887 59.65064276 22.06333636 56.97940923 19.6875 54.1875 C15.76693636 49.58344827 11.43086637 45.4053956 7.13598633 41.15551758 C3.37166837 37.41549534 -0.23503929 33.60467516 -3.66796875 29.5546875 C-5.34467275 27.59771333 -7.14161257 25.78405193 -9 24 C-3.234375 3.234375 -3.234375 3.234375 0 0 Z " fill="#81B3FC" transform="translate(272,265)"/>
<path d="M0 0 C9.29564695 6.46732027 15.97171136 14.92253136 18.515625 25.97265625 C20.47206903 37.09993167 19.5193763 45.52609397 14.390625 55.58984375 C12.74510425 58.74560896 12.74510425 58.74560896 11.765625 61.71484375 C13.22771798 65.15848269 13.22771798 65.15848269 15.765625 67.71484375 C16.33041052 71.80953876 16.44731321 73.76534945 14.015625 77.15234375 C11.765625 78.71484375 11.765625 78.71484375 7.765625 78.71484375 C7.518125 79.33359375 7.270625 79.95234375 7.015625 80.58984375 C5.49173485 83.18045701 4.63108733 83.83928582 1.765625 84.71484375 C-1.171875 84.77734375 -1.171875 84.77734375 -4.234375 83.71484375 C-5.27124023 82.08642578 -5.27124023 82.08642578 -6.29296875 80.16015625 C-7.89804472 77.8115061 -8.62147798 76.85716364 -11.42651367 76.20581055 C-14.09646286 76.16961403 -16.69787037 76.31343105 -19.359375 76.52734375 C-31.648119 77.01712777 -40.54618021 74.58294715 -50.234375 66.71484375 C-58.88489427 58.69488625 -63.13820257 47.62426529 -63.609375 36.02734375 C-63.37095702 24.90584599 -59.64770704 15.02011515 -52.234375 6.71484375 C-38.06168993 -6.75827552 -17.17429236 -9.87822061 0 0 Z M-50.234375 12.71484375 C-57.18102815 22.73278757 -58.7220271 31.75412088 -57.234375 43.71484375 C-56.36922383 47.40966064 -55.1498497 50.44656504 -53.234375 53.71484375 C-52.821875 54.41867188 -52.409375 55.1225 -51.984375 55.84765625 C-46.45075526 64.11664484 -38.43339036 69.0944803 -28.8203125 71.2890625 C-24.21638135 72.04711159 -20.09842562 72.06735762 -15.5078125 71.19921875 C-12.59102627 70.71177738 -10.17540194 70.36120429 -7.234375 70.71484375 C-4.51702178 73.00451374 -2.86139489 75.57751004 -1.234375 78.71484375 C0.745625 78.21984375 0.745625 78.21984375 2.765625 77.71484375 C2.765625 76.06484375 2.765625 74.41484375 2.765625 72.71484375 C5.075625 73.04484375 7.385625 73.37484375 9.765625 73.71484375 C10.260625 72.22984375 10.260625 72.22984375 10.765625 70.71484375 C9.60605901 68.61532655 8.2192435 66.77693267 6.796875 64.84765625 C5.4241121 62.00853299 5.81281097 60.68375704 6.765625 57.71484375 C7.88671875 55.46875 7.88671875 55.46875 9.203125 53.27734375 C13.97970998 45.30686315 14.59263901 37.87251105 13.765625 28.71484375 C11.25199032 19.02309767 5.29551567 9.94160665 -3.18359375 4.453125 C-19.08869714 -3.95251903 -38.28502558 -1.15875478 -50.234375 12.71484375 Z " fill="#6C3535" transform="translate(314.234375,127.28515625)"/>
<path d="M0 0 C11.39611771 4.0437837 23.1925118 11.01266797 30.3125 20.9375 C32.07321435 26.80654783 32.2884102 31.94721997 29.5625 37.5 C26.42414476 40.97763689 24.45693511 42.789164 19.6953125 43.37890625 C15.22059063 43.56686882 12.00022417 43.39593296 7.875 41.5625 C2.0421331 36.00738867 -0.62587996 29.52332233 -2.5 21.8125 C-2.70971436 20.98709717 -2.91942871 20.16169434 -3.13549805 19.3112793 C-4.6919784 12.93163911 -5.60560014 6.63925724 -5.75 0.0625 C-3.75 -0.9375 -3.75 -0.9375 0 0 Z " fill="#6C3636" transform="translate(356.75,286.9375)"/>
<path d="M0 0 C5.94954379 0.45765721 11.29635999 1.78726953 16.9375 3.6875 C17.72656738 3.95296631 18.51563477 4.21843262 19.32861328 4.49194336 C27.02395949 7.18984682 34.74452058 10.68057541 39 18 C40.75194444 22.63389303 41.28967788 25.91370797 40 30.75 C37.39556346 34.98220938 34.50685813 37.74657094 30 40 C23.55022408 40.42998506 19.48508009 39.93044739 14.35546875 35.6171875 C6.94425664 28.1557866 -0.48111184 13.78332247 -1.1875 3.1875 C-1 1 -1 1 0 0 Z " fill="#6C3636" transform="translate(329,220)"/>
<path d="M0 0 C0 13.86 0 27.72 0 42 C-7.26 42 -14.52 42 -22 42 C-22 32.43 -22 22.86 -22 13 C-19.834375 11.96875 -17.66875 10.9375 -15.4375 9.875 C-11.70280829 8.05375613 -3.00026845 0 0 0 Z " fill="#81B3FD" transform="translate(242,340)"/>
<path d="M0 0 C9.05480948 2.68644197 20.2273195 8.4091751 25 17 C26.17541095 21.0102256 26.43921742 22.95974822 24.8125 26.8125 C22.85980888 29.16919618 21.94024566 30.18326509 19 31 C14.90663166 30.92557512 12.6498384 30.46848815 9.3125 28.0625 C3.12584148 19.86935764 1.73782052 9.87398022 0 0 Z " fill="#FCFCFC" transform="translate(357,294)"/>
<path d="M0 0 C10.64524777 1.95162876 20.23792927 5.23792927 28 13 C29.3899408 15.7798816 29.18488204 17.9186326 29 21 C27.79293121 24.34265205 27.07943151 24.94704566 24 27 C19.46069133 27.60524116 16.29613425 27.71649974 12.5 25 C6.32488601 19.0952251 1.15301112 8.44992434 0 0 Z " fill="#FDFCFC" transform="translate(335,227)"/>
</svg>
